<svg xmlns="http://www.w3.org/2000/svg" version="1.0" width="512.000000pt" height="512.000000pt" viewBox="0 0 512.000000 512.000000" preserveAspectRatio="xMidYMid meet" style="&#10;    width: 25px;&#10;    height: 25px;&#10;">

<g transform="translate(0.000000,512.000000) scale(0.100000,-0.100000)" fill="#a6adba" stroke="none">
<path d="M3660 4775 c-8 -2 -48 -9 -89 -15 -145 -24 -318 -100 -438 -193 -32 -25 -166 -155 -299 -288 -253 -257 -300 -317 -364 -466 -55 -130 -74 -231 -75 -393 0 -210 41 -369 139 -527 l43 -71 -141 -140 -141 -140 -35 25 c-60 43 -197 103 -298 130 -84 23 -118 26 -252 27 -173 0 -259 -15 -400 -74 -150 -62 -210 -109 -473 -369 -137 -135 -270 -275 -297 -311 -83 -113 -150 -265 -181 -415 -18 -81 -17 -294 0 -380 83 -415 395 -727 816 -816 33 -8 119 -13 190 -13 179 0 303 28 459 105 126 62 195 121 461 391 264 267 306 321 370 478 67 165 91 378 61 550 -9 51 -19 96 -22 99 -3 3 -75 -64 -160 -150 -141 -142 -154 -158 -154 -191 0 -56 -42 -186 -84 -263 -31 -57 -83 -114 -285 -316 -232 -231 -251 -248 -331 -287 -114 -57 -193 -75 -315 -75 -117 0 -200 18 -300 68 -138 68 -242 172 -310 310 -49 99 -68 183 -69 300 0 121 19 199 76 315 39 80 55 99 292 336 248 248 252 251 346 297 122 58 181 72 310 71 112 0 177 -14 283 -61 l58 -26 -250 -251 c-215 -217 -251 -257 -261 -294 -38 -143 107 -263 240 -199 21 10 396 378 911 895 816 817 877 880 887 922 32 131 -79 240 -211 207 -36 -9 -75 -43 -293 -259 l-251 -249 -26 59 c-67 148 -81 330 -38 472 49 161 72 193 340 460 166 166 265 256 304 279 220 128 486 128 704 0 74 -44 188 -158 232 -232 128 -218 128 -485 0 -704 -23 -38 -115 -140 -274 -299 -196 -198 -253 -248 -310 -280 -77 -42 -207 -84 -263 -84 -33 0 -49 -13 -191 -154 -86 -85 -153 -157 -150 -160 3 -3 48 -13 99 -22 177 -31 395 -5 563 67 149 63 209 110 466 363 133 133 263 267 288 299 89 115 164 281 194 432 18 90 18 290 0 380 -81 408 -391 723 -796 811 -66 14 -272 27 -305 19z"/>
</g>
</svg>